# xmcd
#
# Track frame offsets:
#	150
#	12651
#	23551
#	38444
#	53519
#	71599
#	81885
#	93330
#	104093
#	129941
#	141521
#	152207
#	167857
#	181427
#	193911
#
# Disc length: 2722 seconds
#
# Revision: 1
# Processed by: cddbd v1.5.2PL0 Copyright (c) Steve Scherf et al.
# Submitted via: audiograbber 1.80
#
DISCID=cb0aa00f
DTITLE=The Beggars - Desert Flower
DYEAR=1900
DGENRE=
TTITLE0=East of the moon
TTITLE1=The Banjo Song
TTITLE2=Forgiveness
TTITLE3=Wildwood Flower
TTITLE4=Riverland
TTITLE5=Dragonfly
TTITLE6=That sweet old song
TTITLE7=The cold wind keeps on blowing
TTITLE8=Carolina
TTITLE9=If I could only win your love
TTITLE10=Phar Lap
TTITLE11=Carry my load
TTITLE12=Come let your hair hang down
TTITLE13=I'll never find another you
TTITLE14=Goodnight my love
EXTD=
EXTT0=
EXTT1=
EXTT2=
EXTT3=
EXTT4=
EXTT5=
EXTT6=
EXTT7=
EXTT8=
EXTT9=
EXTT10=
EXTT11=
EXTT12=
EXTT13=
EXTT14=
PLAYORDER=
